<svg xmlns="http://www.w3.org/2000/svg" xmlns:xlink="http://www.w3.org/1999/xlink" viewBox="0 0 430 430" width="430" height="430" preserveAspectRatio="xMidYMid meet" style="width: 100%; height: 100%; transform: translate3d(0px, 0px, 0px); content-visibility: visible;"><defs><clipPath id="__lottie_element_10"><rect width="430" height="430" x="0" y="0"/></clipPath><clipPath id="__lottie_element_12"><path d="M0,0 L430,0 L430,430 L0,430z"/></clipPath><g id="__lottie_element_25"><g transform="matrix(1,0,0,1,209,221.5)" opacity="1" style="display: block;"><g opacity="1" transform="matrix(1,0,0,1,-88,-78)"><path fill="rgb(255,0,0)" fill-opacity="1" d=" M133.86700439453125,212.34800720214844 C134,220.5 133.86700439453125,217.48300170898438 133.86700439453125,217.48300170898438 C133.86700439453125,217.48300170898438 133.86700439453125,225.61199951171875 133.86700439453125,225.61199951171875 C133.86700439453125,233.552001953125 140.1320037841797,238 148.093994140625,238 C148.093994140625,238 170.83399963378906,238 170.83399963378906,238 C170.83399963378906,238 170.83399963378906,200.16099548339844 170.83399963378906,200.16099548339844 C180.8159942626953,194.83700561523438 189.89199829101562,188.0570068359375 197.82000732421875,180.12899780273438 C213.26300048828125,164.68600463867188 224.322998046875,144.88299560546875 228.9810028076172,122.73899841308594 C228.9810028076172,122.73899841308594 234.052001953125,122.73899841308594 234.052001953125,122.73899841308594 C244.67599487304688,122.73899841308594 253.30499267578125,114.11100006103516 253.30499267578125,103.48699951171875 C253.30499267578125,103.48699951171875 253.30499267578125,84.53299713134766 253.30499267578125,84.53299713134766 C253.30499267578125,73.90899658203125 244.67599487304688,65.27999877929688 234.052001953125,65.27999877929688 C234.052001953125,65.27999877929688 226.4340057373047,65.27999877929688 226.4340057373047,65.27999877929688 C218.1269989013672,38.0880012512207 199.9770050048828,15.187999725341797 176.13499450683594,0.7089999914169312 C176.13499450683594,0.7089999914169312 174.94200134277344,-24.742000579833984 191.36099243164062,-43.13800048828125 C193.30299377441406,-45.31399917602539 195.83900451660156,-47.0629997253418 195.20700073242188,-48.25299835205078 C194.31199645996094,-49.9379997253418 191.7779998779297,-49.85100173950195 188.69000244140625,-49.95800018310547 C165.05099487304688,-50.77399826049805 141.85800170898438,-44.61399841308594 128.01600646972656,-15.996999740600586 C128.01600646972656,-15.996999740600586 81.02100372314453,-15.881999969482422 81.02100372314453,-15.881999969482422 C49.308998107910156,-15.881999969482422 20.60300064086914,-3.0320000648498535 -0.164000004529953,17.735000610351562 C-20.95400047302246,38.525001525878906 -33.80400085449219,67.23100280761719 -33.80400085449219,98.94300079345703 C-33.80400085449219,140.88999938964844 -11.315999984741211,177.58200073242188 22.277999877929688,197.61399841308594 C22.277999877929688,197.61399841308594 22.277999877929688,223.61199951171875 22.277999877929688,223.61199951171875 C22.277999877929688,231.552001953125 28.72599983215332,238 36.6879997253418,238 C36.6879997253418,238 59.428001403808594,238 59.428001403808594,238 C59.428001403808594,238 59.356998443603516,225.7030029296875 59.356998443603516,225.7030029296875 C59.356998443603516,225.7030029296875 60,219 59.356998443603516,212.34800720214844 C89.75,215.5 132,212.125 132,212.125"/></g></g></g><clipPath id="__lottie_element_29"><path d="M0,0 L430,0 L430,430 L0,430z"/></clipPath><g id="__lottie_element_32"><g transform="matrix(1,0,0,1,215,216)" opacity="1" style="display: block;"><g opacity="1" transform="matrix(1,0,0,1,-0.5,-27.25)"><path fill="rgb(255,0,0)" fill-opacity="1" d=" M3.5,-7.25 C-12.729999542236328,-7.25 -28.020000457763672,-5.5289998054504395 -41.428001403808594,-2.490999937057495 C-71.87999725341797,4.408999919891357 -92.625,18.106000900268555 -92.625,33.875 C-92.625,56.5880012512207 -49.5880012512207,207.5 3.5,207.5 C56.5880012512207,207.5 99.625,56.5880012512207 99.625,33.875 C99.625,17.91200065612793 78.36599731445312,4.072000026702881 47.29899978637695,-2.743000030517578 C34.16400146484375,-5.624000072479248 19.275999069213867,-7.25 3.5,-7.25z"/></g></g></g><filter id="__lottie_element_38" filterUnits="objectBoundingBox" x="0%" y="0%" width="100%" height="100%"><feComponentTransfer in="SourceGraphic"><feFuncA type="table" tableValues="1.0 0.0"/></feComponentTransfer></filter><mask id="__lottie_element_32_2" mask-type="alpha"><g filter="url(#__lottie_element_38)"><rect width="430" height="430" x="0" y="0" fill="#ffffff" opacity="0"/><use xmlns:ns1="http://www.w3.org/1999/xlink" ns1:href="#__lottie_element_32"/></g></mask><mask id="__lottie_element_25_1" mask-type="alpha"><use xmlns:ns2="http://www.w3.org/1999/xlink" ns2:href="#__lottie_element_25"/></mask><g id="__lottie_element_45"><g transform="matrix(1,0,0,1,215,215)" opacity="1" style="display: block;"><g opacity="1" transform="matrix(1,0,0,1,-4,-101.5)"><path fill="rgb(255,0,0)" fill-opacity="1" d=" M7.806000232696533,85.5 C-14.001999855041504,85.5 -27.395999908447266,119.54299926757812 -23.158000946044922,150 C-16.34000015258789,199 -12.067000389099121,206.5 9.741000175476074,206.5 C31.54800033569336,206.5 37,183.9340057373047 41.275001525878906,153 C46.388999938964844,116 29.613000869750977,85.5 7.806000232696533,85.5z"/></g><g opacity="1" transform="matrix(1,0,0,1,-4,-101.5)"><path fill="rgb(255,0,0)" fill-opacity="1" d=" M7,-69.5 C-21.16699981689453,-69.5 -44,-46.66699981689453 -44,-18.5 C-44,9.666999816894531 -21.16699981689453,32.5 7,32.5 C35.16699981689453,32.5 58,9.666999816894531 58,-18.5 C58,-46.66699981689453 35.16699981689453,-69.5 7,-69.5z"/></g></g></g><mask id="__lottie_element_45_1" mask-type="alpha"><use xmlns:ns3="http://www.w3.org/1999/xlink" ns3:href="#__lottie_element_45"/></mask></defs><g clip-path="url(#__lottie_element_10)"><g clip-path="url(#__lottie_element_12)" transform="matrix(1,0,0,1,0,0)" opacity="1" style="display: block;"><g transform="matrix(1,0,0,1,209,221.5)" opacity="1" style="display: block;"><g opacity="1" transform="matrix(1,0,0,1,-88,-78)"><path stroke-linecap="round" stroke-linejoin="round" fill-opacity="0" class="quaternary" stroke="rgb(242,139,168)" stroke-opacity="1" stroke-width="7" d=" M-22.841999053955078,65.4260025024414 C-22.841999053955078,65.4260025024414 -48.77299880981445,65.4260025024414 -48.77299880981445,65.4260025024414 C-48.77299880981445,65.4260025024414 -74.41899871826172,64.55999755859375 -74.41899871826172,37.85200119018555 C-74.41899871826172,13.890999794006348 -41.16299819946289,14.744000434875488 -41.16299819946289,35.617000579833984 C-41.16299819946289,53.01599884033203 -64.0250015258789,52.5629997253418 -64.0250015258789,52.5629997253418 C-64.0250015258789,52.5629997253418 -88.65599822998047,52.5629997253418 -88.65599822998047,52.5629997253418"/><path stroke-linecap="round" stroke-linejoin="round" fill-opacity="0" class="quaternary" stroke="rgb(242,139,168)" stroke-opacity="0.5" stroke-width="7" d=" M-22.841999053955078,65.4260025024414 C-22.841999053955078,65.4260025024414 -48.77299880981445,65.4260025024414 -48.77299880981445,65.4260025024414 C-48.77299880981445,65.4260025024414 -74.41899871826172,64.55999755859375 -74.41899871826172,37.85200119018555 C-74.41899871826172,13.890999794006348 -41.16299819946289,14.744000434875488 -41.16299819946289,35.617000579833984 C-41.16299819946289,53.01599884033203 -64.0250015258789,52.5629997253418 -64.0250015258789,52.5629997253418 C-64.0250015258789,52.5629997253418 -88.65599822998047,52.5629997253418 -88.65599822998047,52.5629997253418" style="mix-blend-mode: multiply;"/></g></g><g transform="matrix(1,0,0,1,209,221.5)" opacity="1" style="display: block;"><g opacity="1" transform="matrix(1,0,0,1,-88,-78)"><path class="quaternary" fill="rgb(242,139,168)" fill-opacity="1" d=" M133.86700439453125,212.34800720214844 C134,220.5 133.86700439453125,217.48300170898438 133.86700439453125,217.48300170898438 C133.86700439453125,217.48300170898438 133.86700439453125,225.61199951171875 133.86700439453125,225.61199951171875 C133.86700439453125,233.552001953125 140.1320037841797,238 148.093994140625,238 C148.093994140625,238 170.83399963378906,238 170.83399963378906,238 C170.83399963378906,238 170.83399963378906,200.16099548339844 170.83399963378906,200.16099548339844 C180.8159942626953,194.83700561523438 189.89199829101562,188.0570068359375 197.82000732421875,180.12899780273438 C213.26300048828125,164.68600463867188 224.322998046875,144.88299560546875 228.9810028076172,122.73899841308594 C228.9810028076172,122.73899841308594 234.052001953125,122.73899841308594 234.052001953125,122.73899841308594 C244.67599487304688,122.73899841308594 253.30499267578125,114.11100006103516 253.30499267578125,103.48699951171875 C253.30499267578125,103.48699951171875 253.30499267578125,84.53299713134766 253.30499267578125,84.53299713134766 C253.30499267578125,73.90899658203125 244.67599487304688,65.27999877929688 234.052001953125,65.27999877929688 C234.052001953125,65.27999877929688 226.4340057373047,65.27999877929688 226.4340057373047,65.27999877929688 C218.1269989013672,38.0880012512207 199.9770050048828,15.187999725341797 176.13499450683594,0.7089999914169312 C176.13499450683594,0.7089999914169312 174.94200134277344,-24.742000579833984 191.36099243164062,-43.13800048828125 C193.30299377441406,-45.31399917602539 195.83900451660156,-47.0629997253418 195.20700073242188,-48.25299835205078 C194.31199645996094,-49.9379997253418 191.7779998779297,-49.85100173950195 188.69000244140625,-49.95800018310547 C165.05099487304688,-50.77399826049805 141.85800170898438,-44.61399841308594 128.01600646972656,-15.996999740600586 C128.01600646972656,-15.996999740600586 81.02100372314453,-15.881999969482422 81.02100372314453,-15.881999969482422 C49.308998107910156,-15.881999969482422 20.60300064086914,-3.0320000648498535 -0.164000004529953,17.735000610351562 C-20.95400047302246,38.525001525878906 -33.80400085449219,67.23100280761719 -33.80400085449219,98.94300079345703 C-33.80400085449219,140.88999938964844 -11.315999984741211,177.58200073242188 22.277999877929688,197.61399841308594 C22.277999877929688,197.61399841308594 22.277999877929688,223.61199951171875 22.277999877929688,223.61199951171875 C22.277999877929688,231.552001953125 28.72599983215332,238 36.6879997253418,238 C36.6879997253418,238 59.428001403808594,238 59.428001403808594,238 C59.428001403808594,238 59.356998443603516,225.7030029296875 59.356998443603516,225.7030029296875 C59.356998443603516,225.7030029296875 60,219 59.356998443603516,212.34800720214844 C89.16899871826172,214.92799377441406 102.75499725341797,214.05099487304688 131.43299865722656,212.4810028076172"/><path class="quaternary" fill="rgb(242,139,168)" fill-opacity="0.5" d=" M133.86700439453125,212.34800720214844 C134,220.5 133.86700439453125,217.48300170898438 133.86700439453125,217.48300170898438 C133.86700439453125,217.48300170898438 133.86700439453125,225.61199951171875 133.86700439453125,225.61199951171875 C133.86700439453125,233.552001953125 140.1320037841797,238 148.093994140625,238 C148.093994140625,238 170.83399963378906,238 170.83399963378906,238 C170.83399963378906,238 170.83399963378906,200.16099548339844 170.83399963378906,200.16099548339844 C180.8159942626953,194.83700561523438 189.89199829101562,188.0570068359375 197.82000732421875,180.12899780273438 C213.26300048828125,164.68600463867188 224.322998046875,144.88299560546875 228.9810028076172,122.73899841308594 C228.9810028076172,122.73899841308594 234.052001953125,122.73899841308594 234.052001953125,122.73899841308594 C244.67599487304688,122.73899841308594 253.30499267578125,114.11100006103516 253.30499267578125,103.48699951171875 C253.30499267578125,103.48699951171875 253.30499267578125,84.53299713134766 253.30499267578125,84.53299713134766 C253.30499267578125,73.90899658203125 244.67599487304688,65.27999877929688 234.052001953125,65.27999877929688 C234.052001953125,65.27999877929688 226.4340057373047,65.27999877929688 226.4340057373047,65.27999877929688 C218.1269989013672,38.0880012512207 199.9770050048828,15.187999725341797 176.13499450683594,0.7089999914169312 C176.13499450683594,0.7089999914169312 174.94200134277344,-24.742000579833984 191.36099243164062,-43.13800048828125 C193.30299377441406,-45.31399917602539 195.83900451660156,-47.0629997253418 195.20700073242188,-48.25299835205078 C194.31199645996094,-49.9379997253418 191.7779998779297,-49.85100173950195 188.69000244140625,-49.95800018310547 C165.05099487304688,-50.77399826049805 141.85800170898438,-44.61399841308594 128.01600646972656,-15.996999740600586 C128.01600646972656,-15.996999740600586 81.02100372314453,-15.881999969482422 81.02100372314453,-15.881999969482422 C49.308998107910156,-15.881999969482422 20.60300064086914,-3.0320000648498535 -0.164000004529953,17.735000610351562 C-20.95400047302246,38.525001525878906 -33.80400085449219,67.23100280761719 -33.80400085449219,98.94300079345703 C-33.80400085449219,140.88999938964844 -11.315999984741211,177.58200073242188 22.277999877929688,197.61399841308594 C22.277999877929688,197.61399841308594 22.277999877929688,223.61199951171875 22.277999877929688,223.61199951171875 C22.277999877929688,231.552001953125 28.72599983215332,238 36.6879997253418,238 C36.6879997253418,238 59.428001403808594,238 59.428001403808594,238 C59.428001403808594,238 59.356998443603516,225.7030029296875 59.356998443603516,225.7030029296875 C59.356998443603516,225.7030029296875 60,219 59.356998443603516,212.34800720214844 C89.16899871826172,214.92799377441406 102.75499725341797,214.05099487304688 131.43299865722656,212.4810028076172" style="mix-blend-mode: multiply;"/></g></g><g mask="url(#__lottie_element_25_1)" style="display: block;"><g transform="matrix(1,0,0,1,226.25,221.5)" opacity="1"><g opacity="1" transform="matrix(1,0,0,1,-88,-78)"><path class="quaternary" fill="rgb(242,139,168)" fill-opacity="1" d=" M133.86700439453125,212.34800720214844 C134,220.5 133.86700439453125,217.48300170898438 133.86700439453125,217.48300170898438 C133.86700439453125,217.48300170898438 133.86700439453125,225.61199951171875 133.86700439453125,225.61199951171875 C133.86700439453125,233.552001953125 140.1320037841797,238 148.093994140625,238 C148.093994140625,238 170.83399963378906,238 170.83399963378906,238 C170.83399963378906,238 170.83399963378906,200.16099548339844 170.83399963378906,200.16099548339844 C180.8159942626953,194.83700561523438 189.89199829101562,188.0570068359375 197.82000732421875,180.12899780273438 C213.26300048828125,164.68600463867188 224.322998046875,144.88299560546875 228.9810028076172,122.73899841308594 C228.9810028076172,122.73899841308594 234.052001953125,122.73899841308594 234.052001953125,122.73899841308594 C244.67599487304688,122.73899841308594 253.30499267578125,114.11100006103516 253.30499267578125,103.48699951171875 C253.30499267578125,103.48699951171875 253.30499267578125,84.53299713134766 253.30499267578125,84.53299713134766 C253.30499267578125,73.90899658203125 244.67599487304688,65.27999877929688 234.052001953125,65.27999877929688 C234.052001953125,65.27999877929688 226.4340057373047,65.27999877929688 226.4340057373047,65.27999877929688 C218.1269989013672,38.0880012512207 199.9770050048828,15.187999725341797 176.13499450683594,0.7089999914169312 C176.13499450683594,0.7089999914169312 174.94200134277344,-24.742000579833984 191.36099243164062,-43.13800048828125 C193.30299377441406,-45.31399917602539 195.83900451660156,-47.0629997253418 195.20700073242188,-48.25299835205078 C194.31199645996094,-49.9379997253418 191.7779998779297,-49.85100173950195 188.69000244140625,-49.95800018310547 C165.05099487304688,-50.77399826049805 141.85800170898438,-44.61399841308594 128.01600646972656,-15.996999740600586 C128.01600646972656,-15.996999740600586 81.02100372314453,-15.881999969482422 81.02100372314453,-15.881999969482422 C49.308998107910156,-15.881999969482422 20.60300064086914,-3.0320000648498535 -0.164000004529953,17.735000610351562 C-20.95400047302246,38.525001525878906 -33.80400085449219,67.23100280761719 -33.80400085449219,98.94300079345703 C-33.80400085449219,140.88999938964844 -11.315999984741211,177.58200073242188 22.277999877929688,197.61399841308594 C22.277999877929688,197.61399841308594 22.277999877929688,223.61199951171875 22.277999877929688,223.61199951171875 C22.277999877929688,231.552001953125 28.72599983215332,238 36.6879997253418,238 C36.6879997253418,238 59.428001403808594,238 59.428001403808594,238 C59.428001403808594,238 59.356998443603516,225.7030029296875 59.356998443603516,225.7030029296875 C59.356998443603516,225.7030029296875 59.98099899291992,220.375 59.3380012512207,213.72300720214844 C89.98100280761719,216.375 132.25,211.75 132.25,211.75"/></g></g></g><g mask="url(#__lottie_element_32_2)" style="display: block;"><g clip-path="url(#__lottie_element_29)" transform="matrix(1,0,0,1,0,0)" opacity="1"><g transform="matrix(1,0,0,1,215,215)" opacity="1" style="display: block;"><g opacity="1" transform="matrix(1,0,0,1,-4,-101.5)"><path class="primary" fill="rgb(255,199,56)" fill-opacity="1" d=" M7.806000232696533,85.5 C-14.001999855041504,85.5 -27.395999908447266,119.54299926757812 -23.158000946044922,150 C-16.34000015258789,199 -12.067000389099121,206.5 9.741000175476074,206.5 C31.54800033569336,206.5 37,183.9340057373047 41.275001525878906,153 C46.388999938964844,116 29.613000869750977,85.5 7.806000232696533,85.5z"/><path class="primary" fill="rgb(255,199,56)" fill-opacity="0.5" d=" M7.806000232696533,85.5 C-14.001999855041504,85.5 -27.395999908447266,119.54299926757812 -23.158000946044922,150 C-16.34000015258789,199 -12.067000389099121,206.5 9.741000175476074,206.5 C31.54800033569336,206.5 37,183.9340057373047 41.275001525878906,153 C46.388999938964844,116 29.613000869750977,85.5 7.806000232696533,85.5z" style="mix-blend-mode: multiply;"/></g><g opacity="1" transform="matrix(1,0,0,1,-4,-101.5)"><path class="primary" fill="rgb(255,199,56)" fill-opacity="1" d=" M7,-69.5 C-21.16699981689453,-69.5 -44,-46.66699981689453 -44,-18.5 C-44,9.666999816894531 -21.16699981689453,32.5 7,32.5 C35.16699981689453,32.5 58,9.666999816894531 58,-18.5 C58,-46.66699981689453 35.16699981689453,-69.5 7,-69.5z"/><path class="primary" fill="rgb(255,199,56)" fill-opacity="0.5" d=" M7,-69.5 C-21.16699981689453,-69.5 -44,-46.66699981689453 -44,-18.5 C-44,9.666999816894531 -21.16699981689453,32.5 7,32.5 C35.16699981689453,32.5 58,9.666999816894531 58,-18.5 C58,-46.66699981689453 35.16699981689453,-69.5 7,-69.5z" style="mix-blend-mode: multiply;"/></g></g><g mask="url(#__lottie_element_45_1)" style="display: block;"><g transform="matrix(1,0,0,1,225.75,215)" opacity="1"><g opacity="1" transform="matrix(1,0,0,1,-4,-101.5)"><path class="primary" fill="rgb(255,199,56)" fill-opacity="1" d=" M7.806000232696533,85.5 C-14.001999855041504,85.5 -27.395999908447266,119.54299926757812 -23.158000946044922,150 C-16.34000015258789,199 -12.067000389099121,206.5 9.741000175476074,206.5 C31.54800033569336,206.5 37,183.9340057373047 41.275001525878906,153 C46.388999938964844,116 29.613000869750977,85.5 7.806000232696533,85.5z"/></g><g opacity="1" transform="matrix(1,0,0,1,-4,-101.5)"><path class="primary" fill="rgb(255,199,56)" fill-opacity="1" d=" M7,-69.5 C-21.16699981689453,-69.5 -44,-46.66699981689453 -44,-18.5 C-44,9.666999816894531 -21.16699981689453,32.5 7,32.5 C35.16699981689453,32.5 58,9.666999816894531 58,-18.5 C58,-46.66699981689453 35.16699981689453,-69.5 7,-69.5z"/></g></g></g></g></g><g transform="matrix(1,0,0,1,209,221.5)" opacity="1" style="display: block;"><g opacity="1" transform="matrix(1,0,0,1,-88,-78)"><path stroke-linecap="round" stroke-linejoin="round" fill-opacity="0" class="tertiary" stroke="rgb(58,51,71)" stroke-opacity="1" stroke-width="7" d=" M61.32699966430664,14.494000434875488 C61.32699966430664,14.494000434875488 68.41300201416016,10.98799991607666 95.91300201416016,10.994000434875488 C123.41300201416016,11 132.9459991455078,14.494000434875488 132.9459991455078,14.494000434875488"/></g><g opacity="1" transform="matrix(1,0,0,1,84.75,-29.625)"><path class="tertiary" fill="rgb(58,51,71)" fill-opacity="1" d=" M-1.875,-15.875 C-9.399999618530273,-15.875 -15.5,-9.774999618530273 -15.5,-2.25 C-15.5,5.275000095367432 -9.399999618530273,11.375 -1.875,11.375 C5.650000095367432,11.375 11.75,5.275000095367432 11.75,-2.25 C11.75,-9.774999618530273 5.650000095367432,-15.875 -1.875,-15.875z"/></g></g></g></g></svg>